<svg width="194" height="173" viewBox="0 0 194 173" fill="none" xmlns="http://www.w3.org/2000/svg">
<path d="M143.5 51.9231C143.5 76.5897 123.801 96.5 99.6067 96.5C75.4122 96.5 55.7134 76.5897 55.7134 51.9231C55.7134 27.2565 75.4122 7.34619 99.6067 7.34619C123.801 7.34619 143.5 27.2565 143.5 51.9231Z" stroke="#01044A" stroke-width="7"/>
<path d="M137.917 46.875C137.917 71.9552 117.88 92.25 93.2085 92.25C68.5369 92.25 48.5 71.9552 48.5 46.875C48.5 21.7948 68.5369 1.5 93.2085 1.5C117.88 1.5 137.917 21.7948 137.917 46.875Z" stroke="#01044A" stroke-width="3"/>
<path d="M22.896 144.248L21.408 144.2L20.016 138.44C18.16 138.12 16.768 137.96 15.84 137.96C14.016 137.96 11.968 138.328 9.696 139.064C9.024 140.312 8.496 141.912 8.112 143.864C7.728 145.816 7.536 147.656 7.536 149.384C7.536 158.216 10.08 162.632 15.168 162.632C17.344 162.632 19.072 162.312 20.352 161.672L21.36 155.816C23.376 155.816 24.912 155.928 25.968 156.152C26.48 159.64 26.736 162.472 26.736 164.648C25.968 165.224 24.416 165.864 22.08 166.568C19.776 167.272 17.504 167.624 15.264 167.624C5.728 167.624 0.96 161.736 0.96 149.96C0.96 144.36 2.112 140.104 4.416 137.192C6.752 134.28 10.464 132.824 15.552 132.824C18.08 132.824 20.32 133.192 22.272 133.928C24 134.568 25.472 135.272 26.688 136.04C26.688 138.216 26.448 140.84 25.968 143.912C25.072 144.136 24.048 144.248 22.896 144.248ZM42.5194 145.88C41.3674 145.88 40.0554 146.168 38.5834 146.744C38.1674 147.384 37.7674 148.52 37.3834 150.152C37.0314 151.752 36.8554 153.368 36.8554 155C36.8554 158.008 37.3034 160.152 38.1994 161.432C39.0954 162.68 40.5354 163.304 42.5194 163.304C44.5354 163.304 45.9914 162.68 46.8874 161.432C47.7834 160.152 48.2314 157.976 48.2314 154.904C48.2314 151.8 47.7674 149.528 46.8394 148.088C45.9434 146.616 44.5034 145.88 42.5194 145.88ZM42.5194 142.04C46.2634 142.04 49.2714 143.192 51.5434 145.496C53.8474 147.768 54.9994 150.952 54.9994 155.048C54.9994 159.112 53.8634 162.216 51.5914 164.36C49.3194 166.504 46.2954 167.576 42.5194 167.576C38.7434 167.576 35.7194 166.504 33.4474 164.36C31.2074 162.216 30.0874 159.112 30.0874 155.048C30.0874 150.952 31.2234 147.768 33.4954 145.496C35.7674 143.192 38.7754 142.04 42.5194 142.04ZM71.6595 142.04C74.8595 142.04 77.1795 142.824 78.6195 144.392C80.0595 145.96 80.7795 148.152 80.7795 150.968C80.7795 153.784 80.6195 157.592 80.2995 162.392L84.0915 162.824C84.0915 164.136 83.7235 165.528 82.9875 167H71.0355L70.6035 164.36C72.1075 163.752 73.4995 163.272 74.7795 162.92C74.6835 159.24 74.5875 156.152 74.4915 153.656C74.3955 151.128 74.1555 149.416 73.7715 148.52C73.3875 147.624 72.5395 147.176 71.2275 147.176C69.2435 147.176 67.4675 147.528 65.8995 148.232C65.8675 149.608 65.7715 151.864 65.6115 155C65.4835 158.104 65.4035 160.568 65.3715 162.392L69.1155 162.824C69.1155 164.136 68.7475 165.528 68.0115 167H56.0595L55.6275 164.36C57.2275 163.752 58.6675 163.272 59.9475 162.92C59.9155 161 59.8035 158.344 59.6115 154.952C59.4515 151.56 59.3555 149.048 59.3235 147.416C58.1395 147.288 56.8755 147.048 55.5315 146.696L55.7715 143.24C58.0115 142.632 60.5395 142.328 63.3555 142.328C63.7075 142.552 64.1875 143.24 64.7955 144.392C65.8835 143.848 67.2115 143.32 68.7795 142.808C70.3475 142.296 71.3075 142.04 71.6595 142.04ZM98.3576 135.512L97.4936 135.464C96.4696 135.464 95.7496 135.976 95.3336 137C94.9176 137.992 94.6936 139.736 94.6616 142.232C96.5816 142.264 98.0856 142.408 99.1736 142.664C99.2376 142.664 99.6216 142.712 100.326 142.808C100.23 144.248 99.8456 145.624 99.1736 146.936H94.6616C94.5336 153.784 94.4536 158.92 94.4216 162.344C97.5896 162.568 99.3496 162.856 99.7016 163.208C99.7016 164.264 99.3016 165.528 98.5016 167H85.1576L84.7256 164.36C87.2216 163.464 88.6616 162.984 89.0456 162.92L88.5176 146.936H85.1576L85.3016 144.2C86.1336 143.624 87.2056 143.208 88.5176 142.952V141.656C88.5176 137.88 89.2536 135.128 90.7256 133.4C92.0696 131.832 94.0216 131.048 96.5816 131.048C99.1736 131.048 101.91 131.752 104.79 133.16L104.838 133.928C104.838 135.688 104.614 137.656 104.166 139.832C103.206 140.088 102.326 140.216 101.526 140.216C100.726 140.216 100.134 140.184 99.7496 140.12L98.3576 135.512ZM116.606 133.4C120.67 133.4 123.694 134.104 125.677 135.512C127.662 136.92 128.654 139.48 128.654 143.192C128.654 146.296 127.694 148.888 125.774 150.968C123.854 153.016 120.782 154.04 116.558 154.04C115.182 154.04 114.094 154.024 113.294 153.992L113.198 162.44L116.702 162.824C116.702 164.232 116.334 165.624 115.598 167H103.742L103.31 164.36C104.974 163.688 106.318 163.224 107.342 162.968C107.342 162.872 107.198 154.408 106.91 137.576C106.398 137.448 105.07 137.032 102.926 136.328L103.31 133.4H116.606ZM115.549 149.48C117.694 149.448 119.358 148.856 120.542 147.704C121.726 146.552 122.318 145.064 122.318 143.24C122.318 141.416 121.79 140.12 120.734 139.352C119.71 138.552 118.094 138.152 115.886 138.152C115.022 138.152 114.206 138.168 113.438 138.2C113.374 143.256 113.342 147.032 113.342 149.528L115.549 149.48ZM139.991 131.336C140.599 131.336 140.983 131.352 141.143 131.384C141.143 133.048 140.935 134.504 140.519 135.752C140.487 137.736 140.439 140.536 140.375 144.152C140.247 152.088 140.151 158.168 140.087 162.392L143.831 162.824C143.831 164.136 143.463 165.528 142.727 167H130.775L130.343 164.36C132.327 163.624 133.767 163.144 134.663 162.92L133.751 136.28C132.247 136.12 130.983 135.88 129.959 135.56C129.959 134.376 130.071 133.224 130.295 132.104C132.183 131.592 135.415 131.336 139.991 131.336ZM167.635 142.424C168.243 142.424 168.627 142.44 168.787 142.472C168.787 144.104 168.515 145.512 167.971 146.696C167.779 153.736 167.619 158.936 167.491 162.296C168.931 162.424 170.195 162.664 171.283 163.016L171.187 166.376C169.235 166.984 167.555 167.288 166.147 167.288C164.739 167.288 163.779 167.256 163.267 167.192C162.883 166.424 162.563 165.656 162.307 164.888C159.651 166.68 157.731 167.576 156.547 167.576C150.819 167.576 147.955 164.68 147.955 158.888C147.955 157.32 148.083 153.464 148.339 147.32C146.643 147.32 145.091 147.096 143.683 146.648C143.683 145.848 143.795 144.696 144.019 143.192C145.907 142.68 149.139 142.424 153.715 142.424C154.323 142.424 154.707 142.44 154.867 142.472C154.867 144.04 154.595 145.496 154.051 146.84V156.536C154.051 158.584 154.259 160.088 154.675 161.048C155.123 161.976 156.051 162.44 157.459 162.44C158.899 162.44 160.371 161.944 161.875 160.952L161.587 147.32C160.179 147.256 158.851 147.032 157.603 146.648C157.603 145.848 157.715 144.696 157.939 143.192C159.827 142.68 163.059 142.424 167.635 142.424ZM190.902 144.104L190.95 145.592C190.95 148.088 190.758 149.72 190.374 150.488C189.318 150.872 187.846 151.064 185.958 151.064L184.422 146.216C184.006 146.056 183.43 145.976 182.694 145.976C181.958 145.976 181.35 146.2 180.87 146.648C180.422 147.096 180.198 147.624 180.198 148.232C180.198 148.84 180.438 149.4 180.918 149.912C181.398 150.392 181.894 150.776 182.406 151.064C182.918 151.352 183.654 151.736 184.614 152.216C185.606 152.664 186.342 153.016 186.822 153.272C187.334 153.528 187.974 153.912 188.742 154.424C189.542 154.936 190.15 155.416 190.566 155.864C191.59 157.08 192.102 158.408 192.102 159.848C192.102 162.312 191.158 164.216 189.27 165.56C187.414 166.904 185.126 167.576 182.406 167.576C180.966 167.576 179.382 167.32 177.654 166.808C175.958 166.296 174.518 165.608 173.334 164.744C173.334 162.44 173.558 160.296 174.006 158.312C175.286 158.152 176.326 158.072 177.126 158.072C177.926 158.072 178.47 158.088 178.758 158.12L179.334 162.776C180.134 163.064 181.094 163.208 182.214 163.208C183.334 163.208 184.214 162.984 184.854 162.536C185.526 162.088 185.862 161.464 185.862 160.664C185.862 159.832 185.494 159.144 184.758 158.6C184.022 158.056 183.014 157.496 181.734 156.92C180.454 156.312 179.462 155.816 178.758 155.432C178.054 155.016 177.302 154.488 176.502 153.848C174.87 152.6 174.054 151.064 174.054 149.24C174.054 146.968 174.838 145.208 176.406 143.96C178.006 142.68 180.15 142.04 182.838 142.04C185.526 142.04 188.214 142.728 190.902 144.104Z" fill="#01044A"/>
</svg>
