<svg width="194" height="166" viewBox="0 0 194 166" fill="none" xmlns="http://www.w3.org/2000/svg">
<path d="M143.5 51.9231C143.5 76.5897 123.801 96.5 99.6067 96.5C75.4122 96.5 55.7134 76.5897 55.7134 51.9231C55.7134 27.2565 75.4122 7.34619 99.6067 7.34619C123.801 7.34619 143.5 27.2565 143.5 51.9231Z" stroke="#01044A" stroke-width="7"/>
<path d="M137.917 46.875C137.917 71.9552 117.88 92.25 93.2085 92.25C68.5369 92.25 48.5 71.9552 48.5 46.875C48.5 21.7948 68.5369 1.5 93.2085 1.5C117.88 1.5 137.917 21.7948 137.917 46.875Z" stroke="#01044A" stroke-width="3"/>
<path d="M22.896 137.248L21.408 137.2L20.016 131.44C18.16 131.12 16.768 130.96 15.84 130.96C14.016 130.96 11.968 131.328 9.696 132.064C9.024 133.312 8.496 134.912 8.112 136.864C7.728 138.816 7.536 140.656 7.536 142.384C7.536 151.216 10.08 155.632 15.168 155.632C17.344 155.632 19.072 155.312 20.352 154.672L21.36 148.816C23.376 148.816 24.912 148.928 25.968 149.152C26.48 152.64 26.736 155.472 26.736 157.648C25.968 158.224 24.416 158.864 22.08 159.568C19.776 160.272 17.504 160.624 15.264 160.624C5.728 160.624 0.96 154.736 0.96 142.96C0.96 137.36 2.112 133.104 4.416 130.192C6.752 127.28 10.464 125.824 15.552 125.824C18.08 125.824 20.32 126.192 22.272 126.928C24 127.568 25.472 128.272 26.688 129.04C26.688 131.216 26.448 133.84 25.968 136.912C25.072 137.136 24.048 137.248 22.896 137.248ZM42.5194 138.88C41.3674 138.88 40.0554 139.168 38.5834 139.744C38.1674 140.384 37.7674 141.52 37.3834 143.152C37.0314 144.752 36.8554 146.368 36.8554 148C36.8554 151.008 37.3034 153.152 38.1994 154.432C39.0954 155.68 40.5354 156.304 42.5194 156.304C44.5354 156.304 45.9914 155.68 46.8874 154.432C47.7834 153.152 48.2314 150.976 48.2314 147.904C48.2314 144.8 47.7674 142.528 46.8394 141.088C45.9434 139.616 44.5034 138.88 42.5194 138.88ZM42.5194 135.04C46.2634 135.04 49.2714 136.192 51.5434 138.496C53.8474 140.768 54.9994 143.952 54.9994 148.048C54.9994 152.112 53.8634 155.216 51.5914 157.36C49.3194 159.504 46.2954 160.576 42.5194 160.576C38.7434 160.576 35.7194 159.504 33.4474 157.36C31.2074 155.216 30.0874 152.112 30.0874 148.048C30.0874 143.952 31.2234 140.768 33.4954 138.496C35.7674 136.192 38.7754 135.04 42.5194 135.04ZM71.6595 135.04C74.8595 135.04 77.1795 135.824 78.6195 137.392C80.0595 138.96 80.7795 141.152 80.7795 143.968C80.7795 146.784 80.6195 150.592 80.2995 155.392L84.0915 155.824C84.0915 157.136 83.7235 158.528 82.9875 160H71.0355L70.6035 157.36C72.1075 156.752 73.4995 156.272 74.7795 155.92C74.6835 152.24 74.5875 149.152 74.4915 146.656C74.3955 144.128 74.1555 142.416 73.7715 141.52C73.3875 140.624 72.5395 140.176 71.2275 140.176C69.2435 140.176 67.4675 140.528 65.8995 141.232C65.8675 142.608 65.7715 144.864 65.6115 148C65.4835 151.104 65.4035 153.568 65.3715 155.392L69.1155 155.824C69.1155 157.136 68.7475 158.528 68.0115 160H56.0595L55.6275 157.36C57.2275 156.752 58.6675 156.272 59.9475 155.92C59.9155 154 59.8035 151.344 59.6115 147.952C59.4515 144.56 59.3555 142.048 59.3235 140.416C58.1395 140.288 56.8755 140.048 55.5315 139.696L55.7715 136.24C58.0115 135.632 60.5395 135.328 63.3555 135.328C63.7075 135.552 64.1875 136.24 64.7955 137.392C65.8835 136.848 67.2115 136.32 68.7795 135.808C70.3475 135.296 71.3075 135.04 71.6595 135.04ZM98.3576 128.512L97.4936 128.464C96.4696 128.464 95.7496 128.976 95.3336 130C94.9176 130.992 94.6936 132.736 94.6616 135.232C96.5816 135.264 98.0856 135.408 99.1736 135.664C99.2376 135.664 99.6216 135.712 100.326 135.808C100.23 137.248 99.8456 138.624 99.1736 139.936H94.6616C94.5336 146.784 94.4536 151.92 94.4216 155.344C97.5896 155.568 99.3496 155.856 99.7016 156.208C99.7016 157.264 99.3016 158.528 98.5016 160H85.1576L84.7256 157.36C87.2216 156.464 88.6616 155.984 89.0456 155.92L88.5176 139.936H85.1576L85.3016 137.2C86.1336 136.624 87.2056 136.208 88.5176 135.952V134.656C88.5176 130.88 89.2536 128.128 90.7256 126.4C92.0696 124.832 94.0216 124.048 96.5816 124.048C99.1736 124.048 101.91 124.752 104.79 126.16L104.838 126.928C104.838 128.688 104.614 130.656 104.166 132.832C103.206 133.088 102.326 133.216 101.526 133.216C100.726 133.216 100.134 133.184 99.7496 133.12L98.3576 128.512ZM116.606 126.4C120.67 126.4 123.694 127.104 125.677 128.512C127.662 129.92 128.654 132.48 128.654 136.192C128.654 139.296 127.694 141.888 125.774 143.968C123.854 146.016 120.782 147.04 116.558 147.04C115.182 147.04 114.094 147.024 113.294 146.992L113.198 155.44L116.702 155.824C116.702 157.232 116.334 158.624 115.598 160H103.742L103.31 157.36C104.974 156.688 106.318 156.224 107.342 155.968C107.342 155.872 107.198 147.408 106.91 130.576C106.398 130.448 105.07 130.032 102.926 129.328L103.31 126.4H116.606ZM115.549 142.48C117.694 142.448 119.358 141.856 120.542 140.704C121.726 139.552 122.318 138.064 122.318 136.24C122.318 134.416 121.79 133.12 120.734 132.352C119.71 131.552 118.094 131.152 115.886 131.152C115.022 131.152 114.206 131.168 113.438 131.2C113.374 136.256 113.342 140.032 113.342 142.528L115.549 142.48ZM139.991 124.336C140.599 124.336 140.983 124.352 141.143 124.384C141.143 126.048 140.935 127.504 140.519 128.752C140.487 130.736 140.439 133.536 140.375 137.152C140.247 145.088 140.151 151.168 140.087 155.392L143.831 155.824C143.831 157.136 143.463 158.528 142.727 160H130.775L130.343 157.36C132.327 156.624 133.767 156.144 134.663 155.92L133.751 129.28C132.247 129.12 130.983 128.88 129.959 128.56C129.959 127.376 130.071 126.224 130.295 125.104C132.183 124.592 135.415 124.336 139.991 124.336ZM167.635 135.424C168.243 135.424 168.627 135.44 168.787 135.472C168.787 137.104 168.515 138.512 167.971 139.696C167.779 146.736 167.619 151.936 167.491 155.296C168.931 155.424 170.195 155.664 171.283 156.016L171.187 159.376C169.235 159.984 167.555 160.288 166.147 160.288C164.739 160.288 163.779 160.256 163.267 160.192C162.883 159.424 162.563 158.656 162.307 157.888C159.651 159.68 157.731 160.576 156.547 160.576C150.819 160.576 147.955 157.68 147.955 151.888C147.955 150.32 148.083 146.464 148.339 140.32C146.643 140.32 145.091 140.096 143.683 139.648C143.683 138.848 143.795 137.696 144.019 136.192C145.907 135.68 149.139 135.424 153.715 135.424C154.323 135.424 154.707 135.44 154.867 135.472C154.867 137.04 154.595 138.496 154.051 139.84V149.536C154.051 151.584 154.259 153.088 154.675 154.048C155.123 154.976 156.051 155.44 157.459 155.44C158.899 155.44 160.371 154.944 161.875 153.952L161.587 140.32C160.179 140.256 158.851 140.032 157.603 139.648C157.603 138.848 157.715 137.696 157.939 136.192C159.827 135.68 163.059 135.424 167.635 135.424ZM190.902 137.104L190.95 138.592C190.95 141.088 190.758 142.72 190.374 143.488C189.318 143.872 187.846 144.064 185.958 144.064L184.422 139.216C184.006 139.056 183.43 138.976 182.694 138.976C181.958 138.976 181.35 139.2 180.87 139.648C180.422 140.096 180.198 140.624 180.198 141.232C180.198 141.84 180.438 142.4 180.918 142.912C181.398 143.392 181.894 143.776 182.406 144.064C182.918 144.352 183.654 144.736 184.614 145.216C185.606 145.664 186.342 146.016 186.822 146.272C187.334 146.528 187.974 146.912 188.742 147.424C189.542 147.936 190.15 148.416 190.566 148.864C191.59 150.08 192.102 151.408 192.102 152.848C192.102 155.312 191.158 157.216 189.27 158.56C187.414 159.904 185.126 160.576 182.406 160.576C180.966 160.576 179.382 160.32 177.654 159.808C175.958 159.296 174.518 158.608 173.334 157.744C173.334 155.44 173.558 153.296 174.006 151.312C175.286 151.152 176.326 151.072 177.126 151.072C177.926 151.072 178.47 151.088 178.758 151.12L179.334 155.776C180.134 156.064 181.094 156.208 182.214 156.208C183.334 156.208 184.214 155.984 184.854 155.536C185.526 155.088 185.862 154.464 185.862 153.664C185.862 152.832 185.494 152.144 184.758 151.6C184.022 151.056 183.014 150.496 181.734 149.92C180.454 149.312 179.462 148.816 178.758 148.432C178.054 148.016 177.302 147.488 176.502 146.848C174.87 145.6 174.054 144.064 174.054 142.24C174.054 139.968 174.838 138.208 176.406 136.96C178.006 135.68 180.15 135.04 182.838 135.04C185.526 135.04 188.214 135.728 190.902 137.104Z" fill="#01044A"/>
</svg>
