<svg width="300" height="100" viewBox="0 0 300 100" fill="none" xmlns="http://www.w3.org/2000/svg">
<path d="M96.5001 51.9231C96.5001 76.5897 76.8013 96.5 52.6067 96.5C28.4122 96.5 8.71338 76.5897 8.71338 51.9231C8.71338 27.2565 28.4122 7.34619 52.6067 7.34619C76.8013 7.34619 96.5001 27.2565 96.5001 51.9231Z" stroke="#01044A" stroke-width="7"/>
<path d="M90.9171 46.875C90.9171 71.9552 70.8802 92.25 46.2085 92.25C21.5369 92.25 1.5 71.9552 1.5 46.875C1.5 21.7948 21.5369 1.5 46.2085 1.5C70.8802 1.5 90.9171 21.7948 90.9171 46.875Z" stroke="#01044A" stroke-width="3"/>
<path d="M128.896 45.248L127.408 45.2L126.016 39.44C124.16 39.12 122.768 38.96 121.84 38.96C120.016 38.96 117.968 39.328 115.696 40.064C115.024 41.312 114.496 42.912 114.112 44.864C113.728 46.816 113.536 48.656 113.536 50.384C113.536 59.216 116.08 63.632 121.168 63.632C123.344 63.632 125.072 63.312 126.352 62.672L127.36 56.816C129.376 56.816 130.912 56.928 131.968 57.152C132.48 60.64 132.736 63.472 132.736 65.648C131.968 66.224 130.416 66.864 128.08 67.568C125.776 68.272 123.504 68.624 121.264 68.624C111.728 68.624 106.96 62.736 106.96 50.96C106.96 45.36 108.112 41.104 110.416 38.192C112.752 35.28 116.464 33.824 121.552 33.824C124.08 33.824 126.32 34.192 128.272 34.928C130 35.568 131.472 36.272 132.688 37.04C132.688 39.216 132.448 41.84 131.968 44.912C131.072 45.136 130.048 45.248 128.896 45.248ZM148.519 46.88C147.367 46.88 146.055 47.168 144.583 47.744C144.167 48.384 143.767 49.52 143.383 51.152C143.031 52.752 142.855 54.368 142.855 56C142.855 59.008 143.303 61.152 144.199 62.432C145.095 63.68 146.535 64.304 148.519 64.304C150.535 64.304 151.991 63.68 152.887 62.432C153.783 61.152 154.231 58.976 154.231 55.904C154.231 52.8 153.767 50.528 152.839 49.088C151.943 47.616 150.503 46.88 148.519 46.88ZM148.519 43.04C152.263 43.04 155.271 44.192 157.543 46.496C159.847 48.768 160.999 51.952 160.999 56.048C160.999 60.112 159.863 63.216 157.591 65.36C155.319 67.504 152.295 68.576 148.519 68.576C144.743 68.576 141.719 67.504 139.447 65.36C137.207 63.216 136.087 60.112 136.087 56.048C136.087 51.952 137.223 48.768 139.495 46.496C141.767 44.192 144.775 43.04 148.519 43.04ZM177.66 43.04C180.86 43.04 183.18 43.824 184.62 45.392C186.06 46.96 186.78 49.152 186.78 51.968C186.78 54.784 186.62 58.592 186.3 63.392L190.092 63.824C190.092 65.136 189.724 66.528 188.988 68H177.036L176.604 65.36C178.108 64.752 179.5 64.272 180.78 63.92C180.684 60.24 180.588 57.152 180.492 54.656C180.396 52.128 180.156 50.416 179.772 49.52C179.388 48.624 178.54 48.176 177.228 48.176C175.244 48.176 173.468 48.528 171.9 49.232C171.868 50.608 171.772 52.864 171.612 56C171.484 59.104 171.404 61.568 171.372 63.392L175.116 63.824C175.116 65.136 174.748 66.528 174.012 68H162.06L161.628 65.36C163.228 64.752 164.668 64.272 165.948 63.92C165.916 62 165.804 59.344 165.612 55.952C165.452 52.56 165.356 50.048 165.324 48.416C164.14 48.288 162.876 48.048 161.532 47.696L161.771 44.24C164.012 43.632 166.54 43.328 169.356 43.328C169.708 43.552 170.188 44.24 170.796 45.392C171.884 44.848 173.212 44.32 174.78 43.808C176.348 43.296 177.308 43.04 177.66 43.04ZM204.358 36.512L203.494 36.464C202.47 36.464 201.75 36.976 201.334 38C200.918 38.992 200.694 40.736 200.662 43.232C202.582 43.264 204.086 43.408 205.174 43.664C205.238 43.664 205.622 43.712 206.326 43.808C206.23 45.248 205.846 46.624 205.174 47.936H200.662C200.534 54.784 200.454 59.92 200.422 63.344C203.59 63.568 205.35 63.856 205.702 64.208C205.702 65.264 205.302 66.528 204.502 68H191.158L190.726 65.36C193.222 64.464 194.662 63.984 195.046 63.92L194.518 47.936H191.158L191.302 45.2C192.134 44.624 193.206 44.208 194.518 43.952V42.656C194.518 38.88 195.254 36.128 196.726 34.4C198.07 32.832 200.022 32.048 202.582 32.048C205.174 32.048 207.91 32.752 210.79 34.16L210.838 34.928C210.838 36.688 210.614 38.656 210.166 40.832C209.206 41.088 208.326 41.216 207.526 41.216C206.726 41.216 206.134 41.184 205.75 41.12L204.358 36.512ZM222.606 34.4C226.67 34.4 229.694 35.104 231.677 36.512C233.662 37.92 234.654 40.48 234.654 44.192C234.654 47.296 233.694 49.888 231.774 51.968C229.854 54.016 226.782 55.04 222.558 55.04C221.182 55.04 220.094 55.024 219.294 54.992L219.198 63.44L222.702 63.824C222.702 65.232 222.334 66.624 221.598 68H209.742L209.31 65.36C210.974 64.688 212.318 64.224 213.342 63.968C213.342 63.872 213.198 55.408 212.91 38.576C212.398 38.448 211.07 38.032 208.926 37.328L209.31 34.4H222.606ZM221.549 50.48C223.694 50.448 225.358 49.856 226.542 48.704C227.726 47.552 228.318 46.064 228.318 44.24C228.318 42.416 227.79 41.12 226.734 40.352C225.71 39.552 224.094 39.152 221.886 39.152C221.022 39.152 220.206 39.168 219.438 39.2C219.374 44.256 219.342 48.032 219.342 50.528L221.549 50.48ZM245.991 32.336C246.599 32.336 246.983 32.352 247.143 32.384C247.143 34.048 246.935 35.504 246.519 36.752C246.487 38.736 246.439 41.536 246.375 45.152C246.247 53.088 246.151 59.168 246.087 63.392L249.831 63.824C249.831 65.136 249.463 66.528 248.727 68H236.775L236.343 65.36C238.327 64.624 239.767 64.144 240.663 63.92L239.751 37.28C238.247 37.12 236.983 36.88 235.959 36.56C235.959 35.376 236.071 34.224 236.295 33.104C238.183 32.592 241.415 32.336 245.991 32.336ZM273.635 43.424C274.243 43.424 274.627 43.44 274.787 43.472C274.787 45.104 274.515 46.512 273.971 47.696C273.779 54.736 273.619 59.936 273.491 63.296C274.931 63.424 276.195 63.664 277.283 64.016L277.187 67.376C275.235 67.984 273.555 68.288 272.147 68.288C270.739 68.288 269.779 68.256 269.267 68.192C268.883 67.424 268.563 66.656 268.307 65.888C265.651 67.68 263.731 68.576 262.547 68.576C256.819 68.576 253.955 65.68 253.955 59.888C253.955 58.32 254.083 54.464 254.339 48.32C252.643 48.32 251.091 48.096 249.683 47.648C249.683 46.848 249.795 45.696 250.019 44.192C251.907 43.68 255.139 43.424 259.715 43.424C260.323 43.424 260.707 43.44 260.867 43.472C260.867 45.04 260.595 46.496 260.051 47.84V57.536C260.051 59.584 260.259 61.088 260.675 62.048C261.123 62.976 262.051 63.44 263.459 63.44C264.899 63.44 266.371 62.944 267.875 61.952L267.587 48.32C266.179 48.256 264.851 48.032 263.603 47.648C263.603 46.848 263.715 45.696 263.939 44.192C265.827 43.68 269.059 43.424 273.635 43.424ZM296.902 45.104L296.95 46.592C296.95 49.088 296.758 50.72 296.374 51.488C295.318 51.872 293.846 52.064 291.958 52.064L290.422 47.216C290.006 47.056 289.43 46.976 288.694 46.976C287.958 46.976 287.35 47.2 286.87 47.648C286.422 48.096 286.198 48.624 286.198 49.232C286.198 49.84 286.438 50.4 286.918 50.912C287.398 51.392 287.894 51.776 288.406 52.064C288.918 52.352 289.654 52.736 290.614 53.216C291.606 53.664 292.342 54.016 292.822 54.272C293.334 54.528 293.974 54.912 294.742 55.424C295.542 55.936 296.15 56.416 296.566 56.864C297.59 58.08 298.102 59.408 298.102 60.848C298.102 63.312 297.158 65.216 295.27 66.56C293.414 67.904 291.126 68.576 288.406 68.576C286.966 68.576 285.382 68.32 283.654 67.808C281.958 67.296 280.518 66.608 279.334 65.744C279.334 63.44 279.558 61.296 280.006 59.312C281.286 59.152 282.326 59.072 283.126 59.072C283.926 59.072 284.47 59.088 284.758 59.12L285.334 63.776C286.134 64.064 287.094 64.208 288.214 64.208C289.334 64.208 290.214 63.984 290.854 63.536C291.526 63.088 291.862 62.464 291.862 61.664C291.862 60.832 291.494 60.144 290.758 59.6C290.022 59.056 289.014 58.496 287.734 57.92C286.454 57.312 285.462 56.816 284.758 56.432C284.054 56.016 283.302 55.488 282.502 54.848C280.87 53.6 280.054 52.064 280.054 50.24C280.054 47.968 280.838 46.208 282.406 44.96C284.006 43.68 286.15 43.04 288.838 43.04C291.526 43.04 294.214 43.728 296.902 45.104Z" fill="#01044A"/>
</svg>
